<svg xmlns="http://www.w3.org/2000/svg" width="20" height="20" viewBox="0 0 20 20">
  <g id="Group_4809" data-name="Group 4809" transform="translate(-1257.428 73.006)">
    <rect id="Rectangle_1663" data-name="Rectangle 1663" width="20" height="20" transform="translate(1257.428 -73.006)" fill="none"/>
    <path id="Path_42625" data-name="Path 42625" d="M1428.2,1573.077v-.671a6.76,6.76,0,0,0-1.763-4.637,6.09,6.09,0,0,0-4.517-1.943h-.6a6.09,6.09,0,0,0-4.517,1.943,6.76,6.76,0,0,0-1.763,4.637v.671a2.7,2.7,0,0,0-2.45,2.68v1.145a2.693,2.693,0,0,0,2.689,2.69h1.477a.548.548,0,0,0,.548-.548v-5.433a.548.548,0,0,0-.548-.547h-.621v-.658a5.222,5.222,0,0,1,5.181-5.485h.6a5.222,5.222,0,0,1,5.181,5.485v.658h-.621a.548.548,0,0,0-.548.547v5.428a.548.548,0,0,0,.548.548h.6a3.2,3.2,0,0,1-2.6,3.075,1.75,1.75,0,0,0-1.65-1.156h-1.2a1.754,1.754,0,0,0,0,3.509h1.205a1.758,1.758,0,0,0,1.678-1.248,4.6,4.6,0,0,0,1.611-.558,4.3,4.3,0,0,0,2.063-3.63,2.7,2.7,0,0,0,2.466-2.681v-1.145A2.682,2.682,0,0,0,1428.2,1573.077Zm1.351,2.676v1.145a1.6,1.6,0,0,1-1.594,1.594h-.93v-4.333h.93A1.6,1.6,0,0,1,1429.546,1575.753Zm-13.339-1.594v4.333h-.93a1.6,1.6,0,0,1-1.594-1.594v-1.145a1.6,1.6,0,0,1,1.594-1.594Zm7.27,9.1a.658.658,0,0,1-.657.657h-1.205a.657.657,0,0,1,0-1.315h1.205A.658.658,0,0,1,1423.477,1583.264Z" transform="translate(-154.181 -1638.427)" fill="#1a488e" stroke="#1a488e" stroke-width="0.5"/>
  </g>
</svg>
